<svg width="314" height="508" viewBox="0 0 314 508" fill="none" xmlns="http://www.w3.org/2000/svg">
<path d="M246.153 104.427C244.174 102.449 241.491 101.338 238.693 101.337C235.896 101.337 233.213 102.448 231.234 104.427" fill="#ED7070"/>
<path d="M231.234 134.264C227.278 130.307 225.055 124.941 225.055 119.345C225.055 113.75 227.278 108.383 231.234 104.427" fill="#ED7070"/>
<path d="M231.234 134.264C237.169 140.199 245.219 143.533 253.612 143.533C262.005 143.533 270.054 140.199 275.989 134.264" fill="#ED7070"/>
<path d="M275.989 59.6727C285.881 69.5641 291.438 82.9799 291.438 96.9687C291.438 110.957 285.881 124.373 275.989 134.265" fill="#ED7070"/>
<path d="M275.989 59.6727C260.163 43.8463 238.699 34.9562 216.316 34.9559C193.934 34.9559 172.47 43.8469 156.644 59.6727" fill="#ED7070"/>
<path d="M156.643 253.61C130.925 227.892 116.478 193.012 116.475 156.642C116.475 120.272 130.924 85.3925 156.643 59.6739" fill="#ED7070"/>
<path d="M156.644 59.6727C172.47 43.8469 193.934 34.9559 216.316 34.9559C238.699 34.9562 260.163 43.8463 275.989 59.6727C285.881 69.5641 291.438 82.9799 291.438 96.9687C291.438 110.957 285.881 124.373 275.989 134.265M275.989 134.264C270.054 140.199 262.005 143.533 253.612 143.533C245.219 143.533 237.169 140.199 231.234 134.264C227.278 130.307 225.055 124.941 225.055 119.345C225.055 113.75 227.278 108.383 231.234 104.427C233.213 102.448 235.896 101.337 238.693 101.337C241.491 101.338 244.174 102.449 246.153 104.427L253.612 111.886M156.643 253.61C130.925 227.892 116.478 193.012 116.475 156.642C116.475 120.272 130.924 85.3925 156.643 59.6739" stroke="#ED7070" stroke-width="4.20001"/>
<path d="M67.1324 402.794C69.1107 404.772 71.7938 405.884 74.5917 405.884C77.3896 405.884 80.0723 404.773 82.0508 402.794" fill="#ED7070"/>
<path d="M82.0508 372.957C86.0073 376.914 88.23 382.281 88.2298 387.876C88.2297 393.472 86.0073 398.838 82.0508 402.794" fill="#ED7070"/>
<path d="M82.0508 372.957C76.1159 367.022 68.0662 363.688 59.673 363.688C51.2797 363.688 43.231 367.023 37.296 372.958" fill="#ED7070"/>
<path d="M37.296 447.549C27.4046 437.657 21.8475 424.241 21.8475 410.253C21.8475 396.264 27.4046 382.848 37.296 372.956" fill="#ED7070"/>
<path d="M37.296 447.549C53.1224 463.375 74.5866 472.265 96.969 472.265C119.351 472.265 140.816 463.374 156.641 447.548" fill="#ED7070"/>
<path d="M156.642 253.611C182.36 279.329 196.807 314.209 196.81 350.579C196.81 386.95 182.361 421.829 156.642 447.547" fill="#ED7070"/>
<path d="M156.641 447.548C140.816 463.374 119.351 472.265 96.969 472.265C74.5866 472.265 53.1224 463.375 37.296 447.549C27.4046 437.657 21.8475 424.241 21.8475 410.253C21.8475 396.264 27.4046 382.848 37.296 372.956M37.296 372.958C43.231 367.023 51.2797 363.688 59.673 363.688C68.0662 363.688 76.1159 367.022 82.0508 372.957C86.0073 376.914 88.23 382.281 88.2298 387.876C88.2297 393.472 86.0073 398.838 82.0508 402.794C80.0723 404.773 77.3896 405.884 74.5917 405.884C71.7938 405.884 69.1107 404.772 67.1324 402.794L59.6733 395.335M156.642 253.611C182.36 279.329 196.807 314.209 196.81 350.579C196.81 386.95 182.361 421.829 156.642 447.547" stroke="#ED7070" stroke-width="4.20001"/>
</svg>
