<svg width="851" height="508" viewBox="0 0 851 508" fill="none" xmlns="http://www.w3.org/2000/svg">
<path d="M545.623 104.454C543.644 102.475 540.961 101.364 538.163 101.364C535.365 101.364 532.683 102.475 530.704 104.453" fill="#ED7070"/>
<path d="M530.704 134.29C526.748 130.334 524.525 124.967 524.525 119.372C524.525 113.776 526.748 108.41 530.704 104.453" fill="#ED7070"/>
<path d="M530.704 134.29C536.639 140.225 544.689 143.559 553.082 143.559C561.475 143.559 569.524 140.225 575.459 134.29" fill="#ED7070"/>
<path d="M575.459 59.6992C585.35 69.5906 590.907 83.0064 590.907 96.9952C590.907 110.984 585.35 124.4 575.459 134.291" fill="#ED7070"/>
<path d="M575.459 59.6992C559.633 43.8728 538.168 34.9827 515.786 34.9824C493.404 34.9824 471.939 43.8734 456.114 59.6992" fill="#ED7070"/>
<path d="M456.113 253.637C430.395 227.919 415.947 193.039 415.945 156.669C415.945 120.298 430.394 85.419 456.113 59.7004" fill="#ED7070"/>
<path d="M456.114 59.6992C471.939 43.8734 493.404 34.9824 515.786 34.9824C538.168 34.9827 559.633 43.8728 575.459 59.6992C585.35 69.5906 590.907 83.0064 590.907 96.9952C590.907 110.984 585.35 124.4 575.459 134.291M575.459 134.29C569.524 140.225 561.475 143.559 553.082 143.559C544.689 143.559 536.639 140.225 530.704 134.29C526.748 130.334 524.525 124.967 524.525 119.372C524.525 113.776 526.748 108.41 530.704 104.453C532.683 102.475 535.365 101.364 538.163 101.364C540.961 101.364 543.644 102.475 545.623 104.454L553.082 111.913M456.113 253.637C430.395 227.919 415.947 193.039 415.945 156.669C415.945 120.298 430.394 85.419 456.113 59.7004" stroke="#ED7070" stroke-width="4.20001"/>
<path d="M366.602 402.82C368.581 404.799 371.264 405.91 374.062 405.91C376.859 405.91 379.542 404.799 381.521 402.821" fill="#ED7070"/>
<path d="M381.521 372.984C385.477 376.94 387.7 382.307 387.7 387.903C387.7 393.498 385.477 398.864 381.521 402.821" fill="#ED7070"/>
<path d="M381.521 372.984C375.586 367.049 367.536 363.715 359.143 363.715C350.75 363.715 342.701 367.049 336.766 372.984" fill="#ED7070"/>
<path d="M336.766 447.575C326.874 437.684 321.317 424.268 321.317 410.279C321.317 396.29 326.874 382.874 336.766 372.983" fill="#ED7070"/>
<path d="M336.766 447.575C352.592 463.401 374.056 472.291 396.439 472.292C418.821 472.292 440.285 463.401 456.111 447.575" fill="#ED7070"/>
<path d="M456.112 253.638C481.83 279.355 496.277 314.235 496.28 350.606C496.28 386.976 481.831 421.855 456.112 447.574" fill="#ED7070"/>
<path d="M456.111 447.575C440.285 463.401 418.821 472.292 396.439 472.292C374.056 472.291 352.592 463.401 336.766 447.575C326.874 437.684 321.317 424.268 321.317 410.279C321.317 396.29 326.874 382.874 336.766 372.983M336.766 372.984C342.701 367.049 350.75 363.715 359.143 363.715C367.536 363.715 375.586 367.049 381.521 372.984C385.477 376.94 387.7 382.307 387.7 387.903C387.7 393.498 385.477 398.864 381.521 402.821C379.542 404.799 376.859 405.91 374.062 405.91C371.264 405.91 368.581 404.799 366.602 402.82L359.143 395.361M456.112 253.638C481.83 279.355 496.277 314.235 496.28 350.606C496.28 386.976 481.831 421.855 456.112 447.574" stroke="#ED7070" stroke-width="4.20001"/>
<path d="M615.934 377.667H640.071V294.621H642.116C647.434 303.212 657.662 322.03 687.934 322.03C727.207 322.03 754.616 290.53 754.616 240.621C754.616 191.121 727.207 159.621 687.525 159.621C656.843 159.621 647.434 178.44 642.116 186.621H639.252V161.667H615.934V377.667ZM639.662 240.212C639.662 205.03 655.207 181.303 684.662 181.303C715.343 181.303 730.48 207.076 730.48 240.212C730.48 273.758 714.934 300.349 684.662 300.349C655.616 300.349 639.662 275.803 639.662 240.212ZM791.434 318.758H815.571V161.667H791.434V318.758ZM803.707 135.485C813.116 135.485 820.889 128.121 820.889 119.121C820.889 110.121 813.116 102.758 803.707 102.758C794.298 102.758 786.525 110.121 786.525 119.121C786.525 128.121 794.298 135.485 803.707 135.485Z" fill="black"/>
<path d="M56.0803 377.667C77.8644 377.667 93.2053 366.11 102.308 341.667L169.194 162.076L142.808 161.667L99.4439 286.849H97.8075L54.4439 161.667H28.2621L86.353 319.576L81.853 331.849C73.0575 355.78 62.2166 358.03 44.6257 353.53L38.4893 374.803C40.9439 376.03 47.8984 377.667 56.0803 377.667ZM261.367 322.03C293.276 322.03 316.594 306.076 323.958 282.349L300.64 275.803C294.504 292.167 280.288 300.349 261.367 300.349C233.038 300.349 213.504 282.042 212.379 248.394H326.413V238.167C326.413 179.667 291.64 159.621 258.913 159.621C216.367 159.621 188.14 193.167 188.14 241.44C188.14 289.712 215.958 322.03 261.367 322.03ZM212.379 227.53C214.015 203.087 231.299 181.303 258.913 181.303C285.094 181.303 301.867 200.94 301.867 227.53H212.379Z" fill="black"/>
</svg>
