<svg width="924" height="508" viewBox="0 0 924 508" fill="none" xmlns="http://www.w3.org/2000/svg">
<path d="M246.153 104.589C244.174 102.611 241.491 101.5 238.693 101.5C235.896 101.5 233.213 102.611 231.234 104.589" fill="#ED7070"/>
<path d="M231.234 134.426C227.278 130.47 225.055 125.103 225.055 119.507C225.055 113.912 227.278 108.546 231.234 104.589" fill="#ED7070"/>
<path d="M231.234 134.426C237.169 140.361 245.219 143.695 253.612 143.695C262.006 143.695 270.054 140.361 275.989 134.426" fill="#ED7070"/>
<path d="M275.989 59.8349C285.881 69.7263 291.438 83.1421 291.438 97.1309C291.438 111.12 285.881 124.536 275.989 134.427" fill="#ED7070"/>
<path d="M275.989 59.8349C260.163 44.0085 238.699 35.1184 216.316 35.1182C193.934 35.1182 172.47 44.0091 156.644 59.835" fill="#ED7070"/>
<path d="M156.643 253.772C130.925 228.055 116.478 193.175 116.476 156.804C116.476 120.434 130.924 85.5548 156.643 59.8361" fill="#ED7070"/>
<path d="M156.644 59.835C172.47 44.0091 193.934 35.1182 216.316 35.1182C238.699 35.1184 260.163 44.0085 275.989 59.8349C285.881 69.7263 291.438 83.1421 291.438 97.1309C291.438 111.12 285.881 124.536 275.989 134.427M275.989 134.426C270.054 140.361 262.006 143.695 253.612 143.695C245.219 143.695 237.169 140.361 231.234 134.426C227.278 130.47 225.055 125.103 225.055 119.507C225.055 113.912 227.278 108.546 231.234 104.589C233.213 102.611 235.896 101.5 238.693 101.5C241.491 101.5 244.174 102.611 246.153 104.589L253.612 112.049M156.643 253.772C130.925 228.055 116.478 193.175 116.476 156.804C116.476 120.434 130.924 85.5548 156.643 59.8361" stroke="#ED7070" stroke-width="4.20001"/>
<path d="M67.1325 402.956C69.1108 404.934 71.7939 406.046 74.5918 406.046C77.3896 406.046 80.0724 404.935 82.0509 402.956" fill="#ED7070"/>
<path d="M82.0509 373.12C86.0074 377.076 88.23 382.443 88.2299 388.038C88.2298 393.634 86.0074 399 82.0509 402.956" fill="#ED7070"/>
<path d="M82.0509 373.12C76.1159 367.185 68.0663 363.851 59.6731 363.851C51.2797 363.851 43.231 367.185 37.2961 373.12" fill="#ED7070"/>
<path d="M37.2961 447.711C27.4047 437.819 21.8476 424.404 21.8476 410.415C21.8476 396.426 27.4046 383.01 37.2961 373.119" fill="#ED7070"/>
<path d="M37.2961 447.711C53.1225 463.537 74.5867 472.427 96.9691 472.427C119.351 472.427 140.816 463.537 156.642 447.711" fill="#ED7070"/>
<path d="M156.642 253.773C182.36 279.491 196.808 314.371 196.81 350.741C196.81 387.112 182.361 421.991 156.642 447.71" fill="#ED7070"/>
<path d="M156.642 447.711C140.816 463.537 119.351 472.427 96.9691 472.427C74.5867 472.427 53.1225 463.537 37.2961 447.711C27.4047 437.819 21.8476 424.404 21.8476 410.415C21.8476 396.426 27.4046 383.01 37.2961 373.119M37.2961 373.12C43.231 367.185 51.2797 363.851 59.6731 363.851C68.0663 363.851 76.1159 367.185 82.0509 373.12C86.0074 377.076 88.23 382.443 88.2299 388.038C88.2298 393.634 86.0074 399 82.0509 402.956C80.0724 404.935 77.3896 406.046 74.5918 406.046C71.7939 406.046 69.1108 404.934 67.1325 402.956L59.6734 395.497M156.642 253.773C182.36 279.491 196.808 314.371 196.81 350.741C196.81 387.112 182.361 421.991 156.642 447.71" stroke="#ED7070" stroke-width="4.20001"/>
<path d="M393.636 403.664C415.42 403.664 430.761 392.108 439.864 367.664L506.75 188.073L480.364 187.664L437 312.846H435.364L392 187.664H365.818L423.909 345.573L419.409 357.846C410.614 381.778 399.773 384.028 382.182 379.528L376.045 400.801C378.5 402.028 385.455 403.664 393.636 403.664ZM598.923 348.028C630.832 348.028 654.151 332.073 661.514 308.346L638.196 301.801C632.06 318.164 617.844 326.346 598.923 326.346C570.594 326.346 551.06 308.039 549.935 274.392H663.969V264.164C663.969 205.664 629.196 185.619 596.469 185.619C553.923 185.619 525.696 219.164 525.696 267.437C525.696 315.71 553.514 348.028 598.923 348.028ZM549.935 253.528C551.571 229.085 568.855 207.301 596.469 207.301C622.651 207.301 639.423 226.937 639.423 253.528H549.935ZM700.685 403.664H724.821V320.619H726.866C732.185 329.21 742.412 348.028 772.685 348.028C811.957 348.028 839.366 316.528 839.366 266.619C839.366 217.119 811.957 185.619 772.276 185.619C741.594 185.619 732.185 204.437 726.866 212.619H724.003V187.664H700.685V403.664ZM724.412 266.21C724.412 231.028 739.957 207.301 769.412 207.301C800.094 207.301 815.23 233.073 815.23 266.21C815.23 299.755 799.685 326.346 769.412 326.346C740.366 326.346 724.412 301.801 724.412 266.21ZM876.185 344.755H900.321V187.664H876.185V344.755ZM888.457 161.483C897.866 161.483 905.639 154.119 905.639 145.119C905.639 136.119 897.866 128.755 888.457 128.755C879.048 128.755 871.276 136.119 871.276 145.119C871.276 154.119 879.048 161.483 888.457 161.483Z" fill="black"/>
</svg>
